<?xml version="1.0" encoding="UTF-8"?>
<svg version="1.1" xmlns="http://www.w3.org/2000/svg" width="610" height="444">
<path d="M0 0 C1.60243848 -0.00463481 3.20487587 -0.00966036 4.80731201 -0.01504517 C9.14448358 -0.02810908 13.48163972 -0.03460257 17.81882787 -0.03905582 C20.5353276 -0.04199687 23.25182321 -0.04610362 25.96832085 -0.05056 C34.4872727 -0.06422039 43.00621502 -0.07389363 51.52517706 -0.07776189 C61.32222542 -0.08223629 71.11913383 -0.09976162 80.91613966 -0.12876248 C88.51307837 -0.15046139 96.10997794 -0.16047056 103.70694727 -0.16180301 C108.23288429 -0.16284536 112.7586895 -0.1686305 117.28459358 -0.18662262 C121.54874608 -0.20324554 125.81266968 -0.20519078 130.07684326 -0.19648361 C131.62989864 -0.19572072 133.18296707 -0.1999554 134.73599052 -0.20994186 C158.98600364 -0.3565599 178.69783194 5.82784342 196.64038086 22.55566406 C200.41963493 26.42780302 203.40133181 30.53173836 206.18334961 35.16113281 C206.87364258 36.29421875 206.87364258 36.29421875 207.57788086 37.45019531 C218.42014212 57.03832894 217.50032056 81.96406376 217.48413086 103.62597656 C217.48803249 105.83777443 217.49237008 108.04957158 217.49711609 110.2613678 C217.50451733 114.86592046 217.50433123 119.47039635 217.49902344 124.07495117 C217.4932287 129.91858742 217.51019031 135.76190673 217.53336811 141.60549068 C217.54823498 146.16396358 217.54895984 150.72236233 217.54585838 155.28085518 C217.54636483 157.43300569 217.55147222 159.58516112 217.5616703 161.73728752 C217.67276509 188.44510268 215.32905369 212.5884553 196.33569336 233.04003906 C176.6628655 252.42723603 154.02337895 256.37067019 127.33789062 256.61743164 C116.92938869 256.73148025 108.13538479 256.85146045 100.18334961 264.16113281 C98.68042105 266.39632926 97.34129195 268.56015726 96.03881836 270.90332031 C95.27159549 272.23034869 94.50400573 273.55716499 93.73608398 274.88378906 C92.55209736 276.95607163 91.37363371 279.03118835 90.20263672 281.11083984 C80.64616328 298.00686159 80.64616328 298.00686159 71.18334961 301.16113281 C64.38480272 301.89774269 58.73317909 301.36591629 53.18334961 297.16113281 C47.92635877 292.00149365 44.61221056 284.84664807 40.93261719 278.53271484 C34.21784583 266.17204881 34.21784583 266.17204881 23.18334961 258.16113281 C19.3599518 257.20750392 15.73396092 257.0124493 11.80053711 256.95019531 C-16.95026684 256.34534754 -41.27738274 254.36836792 -63.43383789 233.70800781 C-83.459525 212.30350291 -85.13869001 186.45692385 -85.11743164 158.60253906 C-85.12133266 156.44327209 -85.12567014 154.28400588 -85.13041687 152.1247406 C-85.13783341 147.61739609 -85.13762269 143.11012996 -85.13232422 138.6027832 C-85.12655749 132.90191669 -85.14341554 127.20137804 -85.16666889 121.50056553 C-85.18159901 117.04310819 -85.18225179 112.58572614 -85.17915916 108.12824821 C-85.17966348 106.03046969 -85.18472824 103.9326859 -85.19497108 101.83493233 C-85.32066934 72.48124983 -83.90567563 43.57834551 -62.81665039 21.16113281 C-44.70064478 3.82188539 -24.22245328 0.01636569 0 0 Z M-5.12915039 126.28613281 C-7.42600056 130.19928495 -8.01619064 133.64354158 -7.81665039 138.16113281 C-6.20609935 142.90331089 -3.94209425 145.37645821 0.18334961 148.16113281 C3.80265659 149.36756847 6.37565966 149.4838184 10.18334961 149.16113281 C14.80197748 146.58535958 18.48975224 144.24192492 20.18334961 139.16113281 C20.52865239 133.80893978 20.6714292 130.49116265 17.18334961 126.16113281 C13.6065946 122.37398045 10.44383333 121.40738253 5.39428711 121.06347656 C0.83533996 121.26484349 -1.86924457 123.29054368 -5.12915039 126.28613281 Z M54.87084961 126.28613281 C52.57399944 130.19928495 51.98380936 133.64354158 52.18334961 138.16113281 C54.00809406 143.53399148 57.13137032 146.63514317 62.18334961 149.16113281 C68.3267061 149.67307919 71.24188683 149.18325368 76.18334961 145.16113281 C79.43279743 142.35988469 80.1061382 140.184184 80.43334961 135.84863281 C80.0819001 130.66475261 78.5525209 127.65111333 75.05834961 123.84863281 C67.71062351 119.53583706 61.09731906 120.56451223 54.87084961 126.28613281 Z M114.87084961 126.28613281 C112.57399944 130.19928495 111.98380936 133.64354158 112.18334961 138.16113281 C113.77740938 142.85475324 115.90225258 145.64831499 120.18334961 148.16113281 C124.67622652 149.37362824 128.09053642 149.55289603 132.49584961 147.97363281 C136.27493879 145.42494476 138.72310411 143.5418693 140.18334961 139.16113281 C140.57949615 133.91219114 140.04892278 130.60771187 137.18334961 126.16113281 C133.66494812 122.33228414 130.42630154 121.40618851 125.39428711 121.06347656 C120.83533996 121.26484349 118.13075543 123.29054368 114.87084961 126.28613281 Z " fill="#946EFE" transform="translate(238.816650390625,-0.1611328125)"/>
<path d="M0 0 C0.99 0 1.98 0 3 0 C4.53048638 3.06097275 4.51681517 5.69018372 4 9 C2.52778246 13.41665262 0.80618167 17.71031852 -1 22 C2.69612094 22.31321337 2.69612094 22.31321337 6 21 C7.85746712 18.09361028 9.20095839 15.15565752 10.54296875 11.98046875 C12.02295749 8.95303869 13.40026157 7.12329234 16 5 C18.21844626 5.19015254 19.41522155 5.41522155 21 7 C20.94921875 8.890625 20.94921875 8.890625 20.6875 11.25 C20.60886719 12.01828125 20.53023437 12.7865625 20.44921875 13.578125 C20 16 20 16 18 21 C27.24 21 36.48 21 46 21 C46 22.32 46 23.64 46 25 C42.11865969 26.81359313 39.09306483 27.2373701 34.82421875 27.1953125 C33.66728516 27.18886719 32.51035156 27.18242187 31.31835938 27.17578125 C29.52108398 27.15064453 29.52108398 27.15064453 27.6875 27.125 C26.46998047 27.11597656 25.25246094 27.10695313 23.99804688 27.09765625 C20.99849726 27.07413037 17.99934956 27.04125653 15 27 C14.71318359 27.89420654 14.42636719 28.78841309 14.13085938 29.7097168 C13.18492319 32.46195816 12.14671465 35.01814674 10.90625 37.64453125 C10.51566406 38.48693359 10.12507812 39.32933594 9.72265625 40.19726562 C8.91204535 41.93114422 8.09698567 43.66295038 7.27734375 45.39257812 C3.00858563 54.64155405 1.66393495 62.71932355 1.75 72.875 C1.74226562 73.81085938 1.73453125 74.74671875 1.7265625 75.7109375 C1.72914063 76.608125 1.73171875 77.5053125 1.734375 78.4296875 C1.73775879 79.63987549 1.73775879 79.63987549 1.74121094 80.87451172 C1.87467675 83.29959108 1.87467675 83.29959108 4 86 C4.433125 85.175 4.86625 84.35 5.3125 83.5 C5.869375 82.675 6.42625 81.85 7 81 C7.99 81 8.98 81 10 81 C9.25 87.75 9.25 87.75 7 90 C1.7969118 90.55352002 1.7969118 90.55352002 -0.5859375 88.8984375 C-2.59356746 86.20311109 -3.00689051 83.58590757 -3.6875 80.3125 C-4.06455078 78.54326172 -4.06455078 78.54326172 -4.44921875 76.73828125 C-4.63097656 75.83464844 -4.81273437 74.93101562 -5 74 C-5.24645264 74.68626465 -5.49290527 75.3725293 -5.74682617 76.07958984 C-6.87448053 79.18544207 -8.03052593 82.27995683 -9.1875 85.375 C-9.76854492 86.99535156 -9.76854492 86.99535156 -10.36132812 88.6484375 C-10.75126953 89.6796875 -11.14121094 90.7109375 -11.54296875 91.7734375 C-11.89383545 92.72653809 -12.24470215 93.67963867 -12.60620117 94.66162109 C-14.33935281 97.56933285 -15.80622479 98.08350515 -19 99 C-21.2477975 96.94766315 -22.0022242 95.99332739 -23 93 C-23.02706923 91.40361832 -22.99066729 89.80570987 -22.9140625 88.2109375 C-22.87023437 87.26863281 -22.82640625 86.32632813 -22.78125 85.35546875 C-22.70390625 83.88013672 -22.70390625 83.88013672 -22.625 82.375 C-22.58117187 81.41464844 -22.53734375 80.45429688 -22.4921875 79.46484375 C-22.20608755 73.60774205 -21.70813054 67.82107306 -21 62 C-21.60328125 63.10859375 -22.2065625 64.2171875 -22.828125 65.359375 C-23.63505822 66.82311433 -24.44236986 68.28664508 -25.25 69.75 C-25.64574219 70.47960937 -26.04148437 71.20921875 -26.44921875 71.9609375 C-28.57338136 75.79139466 -30.51827806 79.22481996 -34 82 C-36.625 82.0625 -36.625 82.0625 -39 81 C-44.37385824 73.06716165 -40.23705913 58.90240768 -39 50 C-39.36351562 50.82242188 -39.72703125 51.64484375 -40.1015625 52.4921875 C-42.58345405 58.00325951 -45.11619761 63.4696139 -48.0625 68.75 C-48.50722656 69.54921875 -48.95195312 70.3484375 -49.41015625 71.171875 C-51.44851258 73.51573436 -52.97060343 73.69348433 -56 74 C-57.485 72.02 -57.485 72.02 -59 70 C-59.721875 70.639375 -60.44375 71.27875 -61.1875 71.9375 C-64.05652158 74.04144916 -65.46131709 75 -69 75 C-70.70508959 73.71616783 -72.37640963 72.38546378 -74 71 C-74.19634033 71.62044189 -74.39268066 72.24088379 -74.5949707 72.88012695 C-75.49132543 75.69404337 -76.40172836 78.50321845 -77.3125 81.3125 C-77.62123047 82.28896484 -77.92996094 83.26542969 -78.24804688 84.27148438 C-78.55419922 85.20927734 -78.86035156 86.14707031 -79.17578125 87.11328125 C-79.59210815 88.40939331 -79.59210815 88.40939331 -80.0168457 89.73168945 C-81.04519279 92.10426775 -81.98054319 93.40233465 -84 95 C-86.0625 95.0625 -86.0625 95.0625 -88 94 C-90.68122636 88.34487821 -90.26027778 82.48833392 -90.1875 76.375 C-90.18685547 75.33859375 -90.18621094 74.3021875 -90.18554688 73.234375 C-90.1370281 64.8891465 -90.1370281 64.8891465 -89 61 C-89.66 61 -90.32 61 -91 61 C-91.24105469 61.52335937 -91.48210937 62.04671875 -91.73046875 62.5859375 C-96.70835293 72.05157572 -103.49087218 80.8076207 -109.6875 89.5 C-110.20932861 90.24072754 -110.73115723 90.98145508 -111.26879883 91.74462891 C-120.74268574 104.91081863 -120.74268574 104.91081863 -127.6875 106.25 C-130.93485968 106.34372685 -131.71314679 106.21891429 -134.375 104.1875 C-138.47049597 96.15402714 -139.50000567 88.43354468 -139.375 79.5 C-139.36629883 78.45553711 -139.35759766 77.41107422 -139.34863281 76.33496094 C-138.88765654 51.61605278 -132.11221883 29.47426932 -114 12 C-110.33369409 8.92414785 -106.80186048 7.34231085 -102 7 C-99 8.375 -99 8.375 -97 10 C-97.06993855 13.49692767 -97.21000627 16.08495701 -99.5546875 18.80078125 C-104.38529236 23 -104.38529236 23 -107 23 C-106.44928492 19.14499441 -104.68606223 17.68606223 -102 15 C-101.3574765 12.93125966 -101.3574765 12.93125966 -101 11 C-113.20318677 15.45513168 -119.04444686 23.66564202 -125 35 C-126.96509218 39.59029285 -128.55117898 44.22384858 -130 49 C-130.30808594 49.96292969 -130.61617187 50.92585938 -130.93359375 51.91796875 C-135.51350003 67.80520347 -135.11110001 86.10374662 -131 102 C-125.88709142 100.71623941 -123.59283515 98.96288795 -120.3125 94.875 C-119.89242676 94.35365479 -119.47235352 93.83230957 -119.03955078 93.29516602 C-114.59772594 87.68189788 -110.59684872 81.75625957 -106.59765625 75.82421875 C-104.40711073 72.57804654 -102.13690684 69.40227777 -99.8125 66.25 C-99.17957031 65.37214844 -98.54664063 64.49429688 -97.89453125 63.58984375 C-96.63524439 61.86838563 -95.34061957 60.172212 -94.01171875 58.50390625 C-88.32889076 50.90105482 -85.82583951 43.00171087 -83.00439453 34.01708984 C-79.40144888 22.71397322 -74.7405828 11.34328359 -66 3 C-63.828125 2.3359375 -63.828125 2.3359375 -62 2 C-59.74851823 5.37722266 -59.81869842 6.85353604 -60.43408203 10.77001953 C-61.46112976 14.81706612 -63.41938649 18.3065623 -65.4375 21.9375 C-65.87835938 22.7536377 -66.31921875 23.56977539 -66.7734375 24.41064453 C-70.285411 30.85630978 -73.97237348 37.20197233 -77.77514648 43.48022461 C-84.93368607 55.35938837 -86.38058159 69.4211626 -84 83 C-83.61328125 81.91460937 -83.2265625 80.82921875 -82.828125 79.7109375 C-82.3025015 78.26547287 -81.77643628 76.82016882 -81.25 75.375 C-80.99734375 74.66214844 -80.7446875 73.94929688 -80.484375 73.21484375 C-78.81296434 68.66024971 -76.8509011 64.92928543 -74 61 C-72.35 61.33 -70.7 61.66 -69 62 C-68.505 65.96 -68.505 65.96 -68 70 C-63.41448893 66.08147236 -59.01752329 62.12036951 -54.93359375 57.67578125 C-53 56 -53 56 -49.55078125 54.265625 C-45.28969104 51.9143871 -43.7443382 48.74610148 -41.75 44.4375 C-37.6020964 35.85364394 -37.6020964 35.85364394 -35 34 C-34.01 34 -33.02 34 -32 34 C-30.66979071 40.1490807 -31.57408817 44.97962818 -32.9375 51.0625 C-34.72128648 59.58030453 -35.41403618 67.28809088 -35 76 C-32.92951782 72.40036487 -30.87014642 68.79448536 -28.8125 65.1875 C-28.23435547 64.18267578 -27.65621094 63.17785156 -27.06054688 62.14257812 C-21.8674282 53.01794587 -17.22073256 44.03925367 -14.6875 33.8125 C-14.51927734 33.14669922 -14.35105469 32.48089844 -14.17773438 31.79492188 C-13.77586477 30.19892545 -13.38645607 28.59979858 -13 27 C-21.77856523 26.40146146 -29.25181393 27.80079189 -37.62890625 30.125 C-41 31 -41 31 -44 31 C-44.33 32.32 -44.66 33.64 -45 35 C-46.98 34.505 -46.98 34.505 -49 34 C-49.0625 31.75 -49.0625 31.75 -48 29 C-37.38441928 21.64877461 -22.44842689 21.46342026 -10 21 C-9.443125 19.1128125 -9.443125 19.1128125 -8.875 17.1875 C-6.9952597 11.50309305 -4.29808087 4.29808087 0 0 Z M-66 9 C-70.45957137 15.20661995 -74.5931725 21.69569765 -77 29 C-76.67 29.99 -76.34 30.98 -76 32 C-74.13291399 28.54849084 -72.28357093 25.08778835 -70.4375 21.625 C-69.90447266 20.64015625 -69.37144531 19.6553125 -68.82226562 18.640625 C-68.32275391 17.69960938 -67.82324219 16.75859375 -67.30859375 15.7890625 C-66.84251709 14.91975098 -66.37644043 14.05043945 -65.89624023 13.15478516 C-65.60048096 12.44370605 -65.30472168 11.73262695 -65 11 C-65.33 10.34 -65.66 9.68 -66 9 Z M15 12 C16 14 16 14 16 14 Z M14 14 C12.515 17.96 12.515 17.96 11 22 C11.66 22 12.32 22 13 22 C14.87543354 18.13236554 14.87543354 18.13236554 14 14 Z M-6.125 29.875 C-16.06275035 49.18185559 -18.75932055 70.5421636 -18 92 C-15.92135229 88.88202844 -14.73324654 85.99046597 -13.375 82.5 C-11.64463014 78.07077783 -9.87416107 73.66977966 -7.96875 69.3125 C-1.79830462 55.17507752 1.92673574 41.11021592 5 26 C-0.4679284 25.05725372 -3.01187781 25.0397251 -6.125 29.875 Z M9 27 C10 29 10 29 10 29 Z M8 30 C9 32 9 32 9 32 Z M-38 46 C-37 48 -37 48 -37 48 Z " fill="#EEE3FD" transform="translate(309,304)"/>
<path d="M0 0 C4.31978064 4.28670422 6.13748477 8.26718521 7.75 14.0625 C7.95753906 14.75666016 8.16507812 15.45082031 8.37890625 16.16601562 C9.43361463 19.74862184 10.3407483 23.32395517 11 27 C11.77085937 26.01257813 12.54171875 25.02515625 13.3359375 24.0078125 C14.34888812 22.71348671 15.36191281 21.41921889 16.375 20.125 C16.88289063 19.47402344 17.39078125 18.82304687 17.9140625 18.15234375 C18.40390625 17.52714844 18.89375 16.90195312 19.3984375 16.2578125 C19.84880371 15.6817627 20.29916992 15.10571289 20.76318359 14.51220703 C22 13 22 13 24 11 C24.99 11 25.98 11 27 11 C26.50305681 15.59672455 24.7579623 17.87127161 21.75 21.3125 C20.93917969 22.28703125 20.12835938 23.2615625 19.29296875 24.265625 C17.99817795 25.80966854 16.69471522 27.34681517 15.36328125 28.859375 C11.47803682 33.9463617 11.32746911 39.55980669 10.7980957 45.72729492 C9.61829264 58.58727928 6.28950288 76.2538141 -3.515625 85.328125 C-6 87 -6 87 -8.75 86.875 C-11 86 -11 86 -12 84 C-12.68130637 69.36739726 -5.63811536 56.51216409 0.98535156 43.86938477 C6.71804902 32.57475486 5.37495416 24.0453385 2 12 C0.84041134 9.15298124 -0.45385422 6.66576859 -2 4 C-7.05392723 5.37503245 -9.34076322 8.51283228 -12.3125 12.5625 C-13.27815653 13.82819166 -14.24561301 15.09251203 -15.21484375 16.35546875 C-15.68647949 16.97470215 -16.15811523 17.59393555 -16.64404297 18.23193359 C-18.50428307 20.65754735 -20.40815592 23.03494072 -22.375 25.375 C-22.96023438 26.08398438 -23.54546875 26.79296875 -24.1484375 27.5234375 C-26 29 -26 29 -28.6015625 29.4140625 C-29.39304687 29.27742188 -30.18453125 29.14078125 -31 29 C-33.34221389 25.48667916 -33.15394311 24.81217059 -32.4375 20.8125 C-31.38097375 15.65335886 -29.72448075 10.85710321 -26 7 C-25.01 7 -24.02 7 -23 7 C-23.80345093 10.49462153 -25.02654507 13.68703865 -26.37890625 17 C-27.19771681 19.28763633 -27.19771681 19.28763633 -27 23 C-24.05242368 19.66458469 -21.20259001 16.29497333 -18.515625 12.74609375 C-18.08040527 12.17141357 -17.64518555 11.5967334 -17.19677734 11.00463867 C-16.3276576 9.85089586 -15.46324704 8.69358777 -14.60400391 7.5324707 C-10.31021794 1.8325673 -7.44667443 -1.1757907 0 0 Z M5 45 C6 47 6 47 6 47 Z M4 47 C-1.9312402 58.26269207 -7.13955078 69.09326169 -8 82 C-4.08887758 80.34592114 -2.8066298 78.42829001 -1.01171875 74.5546875 C2.55176231 65.55655385 5.1903161 56.70612124 5 47 C4.67 47 4.34 47 4 47 Z " fill="#EFE4FE" transform="translate(417,338)"/>
<path d="M0 0 C2.125 0.5 2.125 0.5 3.125 1.5 C2.75676357 6.93148733 1.88032834 10.70812462 -0.875 15.5 C-0.13894531 15.07847656 0.59710938 14.65695312 1.35546875 14.22265625 C2.33128906 13.67480469 3.30710937 13.12695312 4.3125 12.5625 C5.27542969 12.01722656 6.23835938 11.47195313 7.23046875 10.91015625 C9.93162842 9.59420667 12.16856101 8.92698113 15.125 8.5 C15.87890625 10.59375 15.87890625 10.59375 16.125 13.5 C14.86156873 15.85444134 13.6094821 17.85012552 12.0625 20 C3.45670855 32.66287933 -1.9675631 45.00084911 -0.875 60.5 C-0.545 61.49 -0.215 62.48 0.125 63.5 C2.56980079 63.31171228 2.56980079 63.31171228 5.125 62.5 C6.48520151 60.53241727 6.48520151 60.53241727 7.125 58.5 C8.115 58.5 9.105 58.5 10.125 58.5 C9.90502243 62.3496075 9.13432799 63.49046001 6.375 66.3125 C3.125 68.5 3.125 68.5 0.4375 69.0625 C-1.875 68.5 -1.875 68.5 -3.625 66.6875 C-7.41503345 60.05494147 -6.60815762 51.57695081 -5.296875 44.28515625 C-2.63453629 34.68863536 2.28411949 26.13704108 7.125 17.5 C-1.36135568 21.95374155 -6.55644659 25.45368963 -11.3359375 33.94140625 C-14.37841587 38.99933348 -18.17519444 41.69482894 -23.4375 44.1875 C-27.11403538 44.52173049 -27.53249976 44.45277465 -30.25 42.3125 C-34.14039456 38.14422011 -34.21608381 34.72646353 -34.16015625 29.26953125 C-33.56895612 23.52760123 -31.33329157 18.5416082 -28 13.875 C-25.12922689 12.01744093 -23.2257513 12.06294548 -19.875 12.5 C-19.215 13.16 -18.555 13.82 -17.875 14.5 C-18.07500092 19.80002445 -19.25613738 22.64766237 -22.875 26.5 C-24.525 26.17 -26.175 25.84 -27.875 25.5 C-29.05806728 27.86613456 -29.00854608 29.36780736 -29 32 C-29.00257813 32.7940625 -29.00515625 33.588125 -29.0078125 34.40625 C-29.00777996 36.55918534 -29.00777996 36.55918534 -27.875 38.5 C-22.06064666 38.21637301 -18.67598077 35.68303812 -14.875 31.5 C-13.68342564 29.39491303 -13.68342564 29.39491303 -12.875 27.5 C-13.555625 26.943125 -14.23625 26.38625 -14.9375 25.8125 C-15.576875 25.049375 -16.21625 24.28625 -16.875 23.5 C-16.10701499 15.24765201 -10.4869397 7.19074885 -4.55078125 1.67578125 C-2.875 0.5 -2.875 0.5 0 0 Z M-2.875 6.5 C-8.04871324 13.08280141 -8.04871324 13.08280141 -11.875 20.5 C-11.545 21.16 -11.215 21.82 -10.875 22.5 C-6.43493084 18.88216587 -3.89011972 13.78163799 -1.875 8.5 C-2.205 7.84 -2.535 7.18 -2.875 6.5 Z M-24.9375 18.5 C-25.576875 19.16 -26.21625 19.82 -26.875 20.5 C-25.555 20.5 -24.235 20.5 -22.875 20.5 C-22.545 19.18 -22.215 17.86 -21.875 16.5 C-23.23417681 16.38397569 -23.23417681 16.38397569 -24.9375 18.5 Z " fill="#F0E4FD" transform="translate(353.875,335.5)"/>
<path d="M0 0 C1.75227285 6.07659533 0.01090039 11.06191514 -1.6875 16.9375 C-1.98986572 18.01636475 -2.29223145 19.09522949 -2.60375977 20.20678711 C-4.47280728 26.60347632 -6.63746462 32.80695288 -9.140625 38.9765625 C-9.41167557 39.64931717 -9.68272614 40.32207184 -9.96199036 41.01521301 C-11.29572462 44.30885307 -12.66229914 47.58219256 -14.08666992 50.83764648 C-19.48307326 63.58302874 -18.81217783 75.38699548 -16.6875 88.875 C-16.51057617 90.1434375 -16.51057617 90.1434375 -16.33007812 91.4375 C-15.27066461 98.54371991 -14.03023182 105.95465227 -10 112 C-10 112.99 -10 113.98 -10 115 C-11.485 115.495 -11.485 115.495 -13 116 C-21.06859135 107.01989415 -21.78548053 92.75878228 -22.80761719 81.13525391 C-22.9946521 79.0593563 -23.2189227 76.98988417 -23.4453125 74.91796875 C-25.74920651 51.18105087 -20.40368046 20.37905026 -5.51171875 1.0703125 C-4 0 -4 0 0 0 Z M-6 10 C-12.35743521 21.37980902 -16.08389959 32.94556917 -17 46 C-11.74459243 38.11688865 -3.82343654 21.00226604 -5.40234375 11.60546875 C-5.59957031 11.07566406 -5.79679687 10.54585938 -6 10 Z M-18 47 C-17 49 -17 49 -17 49 Z " fill="#EFE4FE" transform="translate(394,295)"/>
<path d="M0 0 C0.99 0 1.98 0 3 0 C4.53048638 3.06097275 4.51681517 5.69018372 4 9 C2.52778246 13.41665262 0.80618167 17.71031852 -1 22 C-0.01 22.33 0.98 22.66 2 23 C0.68 23 -0.64 23 -2 23 C-2.33 22.34 -2.66 21.68 -3 21 C-4.32 21.33 -5.64 21.66 -7 22 C-6.48579339 19.42896697 -5.96897576 16.86659575 -5.375 14.3125 C-4.76572985 11.98135781 -4.76572985 11.98135781 -6 10 C-5.0390625 7.87109375 -5.0390625 7.87109375 -3.625 5.4375 C-3.16351563 4.63183594 -2.70203125 3.82617188 -2.2265625 2.99609375 C-1 1 -1 1 0 0 Z " fill="#E6D7FE" transform="translate(309,304)"/>
<path d="M0 0 C-0.75 1.9375 -0.75 1.9375 -2 4 C-6.66004568 5.61366032 -11.69159777 5.26316608 -16.5625 5.3125 C-17.52091797 5.34150391 -18.47933594 5.37050781 -19.46679688 5.40039062 C-20.38654297 5.40876953 -21.30628906 5.41714844 -22.25390625 5.42578125 C-23.09252197 5.44036377 -23.9311377 5.45494629 -24.79516602 5.4699707 C-27 5 -27 5 -28.79663086 2.97338867 C-29.19374268 2.32217041 -29.59085449 1.67095215 -30 1 C-25.13758514 -0.62080495 -20.09524723 -0.42309044 -15 -0.625 C-13.89398438 -0.6765625 -12.78796875 -0.728125 -11.6484375 -0.78125 C-10.58882813 -0.82507813 -9.52921875 -0.86890625 -8.4375 -0.9140625 C-7.46683594 -0.9548291 -6.49617188 -0.9955957 -5.49609375 -1.03759766 C-3 -1 -3 -1 0 0 Z " fill="#F2E6FE" transform="translate(356,326)"/>
<path d="M0 0 C2 3 2 3 1.6875 5.4375 C1.460625 6.283125 1.23375 7.12875 1 8 C0.67 9.32 0.34 10.64 0 12 C2.97 10.35 5.94 8.7 9 7 C9.33 7.66 9.66 8.32 10 9 C9.01 9.66 8.02 10.32 7 11 C7.99 11 8.98 11 10 11 C9.67 12.32 9.34 13.64 9 15 C8.34 14.67 7.68 14.34 7 14 C6.195625 14.495 5.39125 14.99 4.5625 15.5 C3.2940625 16.2425 3.2940625 16.2425 2 17 C1.01 16.67 0.02 16.34 -1 16 C-1 15.67 -1 15.34 -1 15 C-1.99 15 -2.98 15 -4 15 C-4 14.01 -4 13.02 -4 12 C-4.66 11.67 -5.32 11.34 -6 11 C-5.01 8.69 -4.02 6.38 -3 4 C-3.680625 4.99 -3.680625 4.99 -4.375 6 C-4.91125 6.66 -5.4475 7.32 -6 8 C-6.66 8 -7.32 8 -8 8 C-6.48291727 4.46014029 -4.24676932 0 0 0 Z " fill="#E7D9FE" transform="translate(354,339)"/>
<path d="M0 0 C2 1 2 1 4 4 C4.66 4.33 5.32 4.66 6 5 C5.67 3.68 5.34 2.36 5 1 C5.99 1 6.98 1 8 1 C7.58742287 6.50102837 5.45277325 10.76201664 2 15 C1.34 15 0.68 15 0 15 C-0.66 16.32 -1.32 17.64 -2 19 C-3.29065057 15.1280483 -2.22324098 12.55767399 -1.0625 8.8125 C-0.86720703 8.15830078 -0.67191406 7.50410156 -0.47070312 6.83007812 C0.01182563 5.21772593 0.50490205 3.60853711 1 2 C-3.08564325 2.11544282 -3.08564325 2.11544282 -7 3 C-9.08632697 5.91841857 -9.08632697 5.91841857 -10 9 C-10.66 8.67 -11.32 8.34 -12 8 C-9.52172145 0.94643798 -7.65797349 -0.55694353 0 0 Z M4 6 C5 8 5 8 5 8 Z " fill="#E9DBFD" transform="translate(313,328)"/>
<path d="M0 0 C0.33 0.66 0.66 1.32 1 2 C0.0625 4.125 0.0625 4.125 -1 6 C0.65 5.67 2.3 5.34 4 5 C3.75 6.875 3.75 6.875 3 9 C0.18708908 10.90876098 -2.68847666 11.42048342 -6 12 C-7.33502304 12.3265002 -8.66868146 12.65870859 -10 13 C-9.07265428 11.51444617 -8.13275187 10.03672494 -7.1875 8.5625 C-6.66542969 7.73878906 -6.14335937 6.91507812 -5.60546875 6.06640625 C-4 4 -4 4 -1 3 C-0.67 2.01 -0.34 1.02 0 0 Z " fill="#F0E7FC" transform="translate(351,348)"/>
<path d="M0 0 C0.53625 0.391875 1.0725 0.78375 1.625 1.1875 C1.625 1.8475 1.625 2.5075 1.625 3.1875 C-0.355 3.5175 -2.335 3.8475 -4.375 4.1875 C-4.705 5.5075 -5.035 6.8275 -5.375 8.1875 C-6.695 7.8575 -8.015 7.5275 -9.375 7.1875 C-9.25 4.875 -9.25 4.875 -8.375 2.1875 C-3.47426262 -1.18856353 -3.47426262 -1.18856353 0 0 Z " fill="#F4ECFE" transform="translate(269.375,330.8125)"/>
<path d="M0 0 C2 2 2 2 2.13525391 4.24658203 C2.08288574 5.15778809 2.03051758 6.06899414 1.9765625 7.0078125 C1.89921875 8.48701172 1.89921875 8.48701172 1.8203125 9.99609375 C1.75585938 11.02863281 1.69140625 12.06117188 1.625 13.125 C1.56828125 14.16527344 1.5115625 15.20554687 1.453125 16.27734375 C1.31138791 18.85223418 1.15995446 21.4261874 1 24 C0.67 24 0.34 24 0 24 C-0.33 21.36 -0.66 18.72 -1 16 C-1.66 16.33 -2.32 16.66 -3 17 C-2.01 11.39 -1.02 5.78 0 0 Z " fill="#E9E0FE" transform="translate(374,355)"/>
<path d="M0 0 C2.25 0.25 2.25 0.25 4 1 C4.33 2.65 4.66 4.3 5 6 C4.01 6.33 3.02 6.66 2 7 C2 6.01 2 5.02 2 4 C-0.475 5.485 -0.475 5.485 -3 7 C-3.33 6.01 -3.66 5.02 -4 4 C-2.25 1.9375 -2.25 1.9375 0 0 Z " fill="#EDE4FD" transform="translate(325,309)"/>
<path d="M0 0 C0.66 1.32 1.32 2.64 2 4 C1.01 4.495 1.01 4.495 0 5 C0 5.99 0 6.98 0 8 C0.99 7.67 1.98 7.34 3 7 C2.67 8.98 2.34 10.96 2 13 C0.0625 12.6875 0.0625 12.6875 -2 12 C-2.33 11.01 -2.66 10.02 -3 9 C-2.34 9 -1.68 9 -1 9 C-1.20625 8.2575 -1.4125 7.515 -1.625 6.75 C-2.04408751 3.67669159 -1.61949011 2.57213134 0 0 Z " fill="#F4EAFD" transform="translate(223,386)"/>
<path d="M0 0 C0.33 1.32 0.66 2.64 1 4 C-0.65 4.66 -2.3 5.32 -4 6 C-4 6.66 -4 7.32 -4 8 C-4.66 8 -5.32 8 -6 8 C-6.33 8.66 -6.66 9.32 -7 10 C-7.66 10 -8.32 10 -9 10 C-8.67 8.35 -8.34 6.7 -8 5 C-7.34 5 -6.68 5 -6 5 C-5.67 3.68 -5.34 2.36 -5 1 C-4.67 1.66 -4.34 2.32 -4 3 C-3.34 3 -2.68 3 -2 3 C-1.34 2.01 -0.68 1.02 0 0 Z " fill="#E6D5FE" transform="translate(332,353)"/>
<path d="M0 0 C1.32 0 2.64 0 4 0 C5.23076923 5.41538462 5.23076923 5.41538462 4.0625 8.375 C3.711875 8.91125 3.36125 9.4475 3 10 C2 9 2 9 1.9375 6.4375 C1.958125 5.633125 1.97875 4.82875 2 4 C0.68 4 -0.64 4 -2 4 C-1.34 2.68 -0.68 1.36 0 0 Z " fill="#F3E9FE" transform="translate(390,295)"/>
<path d="M0 0 C5.47035213 3.79037089 9.89962427 7.75027653 14 13 C11.72678239 11.91322164 9.89935764 10.91765625 7.9375 9.3125 C7.298125 8.879375 6.65875 8.44625 6 8 C5.01 8.33 4.02 8.66 3 9 C2.87625 8.2575 2.7525 7.515 2.625 6.75 C2.0421624 4.18551458 1.21335551 2.30833488 0 0 Z " fill="#AA89FE" transform="translate(424,13)"/>
<path d="M0 0 C0.66 0.33 1.32 0.66 2 1 C2 4.63 2 8.26 2 12 C1.34 12 0.68 12 0 12 C-0.33 10.35 -0.66 8.7 -1 7 C-1.66 7 -2.32 7 -3 7 C-1.125 1.125 -1.125 1.125 0 0 Z " fill="#E5D7FE" transform="translate(305,371)"/>
<path d="M0 0 C0.66 0 1.32 0 2 0 C2.33 0.66 2.66 1.32 3 2 C3.66 2.33 4.32 2.66 5 3 C4.34 4.65 3.68 6.3 3 8 C1.68 7.01 0.36 6.02 -1 5 C-1.33 5.66 -1.66 6.32 -2 7 C-2.66 7 -3.32 7 -4 7 C-2.92598892 4.08482708 -2.22189824 2.22189824 0 0 Z " fill="#E1CFFE" transform="translate(325,313)"/>
<path d="M0 0 C0.66 0.33 1.32 0.66 2 1 C1.34 2.98 0.68 4.96 0 7 C-0.99 7 -1.98 7 -3 7 C-4.70532323 8.94009522 -4.70532323 8.94009522 -6 11 C-5.55530671 5.96014269 -3.28656638 3.62365012 0 0 Z " fill="#E3D0FD" transform="translate(261,360)"/>
<path d="M0 0 C0.99 0 1.98 0 3 0 C4.4783226 2.95664519 4.06032783 5.74229737 4 9 C3.67 8.34 3.34 7.68 3 7 C1.35 7 -0.3 7 -2 7 C-1.34 4.69 -0.68 2.38 0 0 Z " fill="#F2E9FE" transform="translate(309,304)"/>
<path d="M0 0 C0.99 0 1.98 0 3 0 C3.33 2.31 3.66 4.62 4 7 C1.69 6.01 -0.62 5.02 -3 4 C-1.6875 2 -1.6875 2 0 0 Z " fill="#F3E9FD" transform="translate(274,338)"/>
<path d="M0 0 C0.99 0 1.98 0 3 0 C2.34 2.97 1.68 5.94 1 9 C0.34 8.34 -0.32 7.68 -1 7 C-1.99 7.495 -1.99 7.495 -3 8 C-3 6.02 -3 4.04 -3 2 C-2.01 2 -1.02 2 0 2 C0 1.34 0 0.68 0 0 Z " fill="#E7D4FD" transform="translate(272,345)"/>
<path d="M0 0 C0.58265625 0.21527344 1.1653125 0.43054687 1.765625 0.65234375 C1.765625 1.97234375 1.765625 3.29234375 1.765625 4.65234375 C0.445625 4.65234375 -0.874375 4.65234375 -2.234375 4.65234375 C-2.234375 3.99234375 -2.234375 3.33234375 -2.234375 2.65234375 C-3.018125 3.16796875 -3.801875 3.68359375 -4.609375 4.21484375 C-5.475625 4.68921875 -6.341875 5.16359375 -7.234375 5.65234375 C-7.894375 5.32234375 -8.554375 4.99234375 -9.234375 4.65234375 C-8.16330383 3.78285058 -7.07691556 2.9322017 -5.984375 2.08984375 C-5.38109375 1.61417969 -4.7778125 1.13851563 -4.15625 0.6484375 C-2.234375 -0.34765625 -2.234375 -0.34765625 0 0 Z " fill="#A581FE" transform="translate(195.234375,8.34765625)"/>
<path d="M0 0 C1.5 1.25 1.5 1.25 3 3 C3 7 3 7 2 9 C-0.4375 8.1875 -0.4375 8.1875 -3 7 C-3.33 6.01 -3.66 5.02 -4 4 C-3.01 3.67 -2.02 3.34 -1 3 C-0.67 2.01 -0.34 1.02 0 0 Z " fill="#E4D0FD" transform="translate(341,354)"/>
<path d="M0 0 C0.99 0.99 1.98 1.98 3 3 C1.66666667 5.66666667 0.33333333 8.33333333 -1 11 C-1.66 11 -2.32 11 -3 11 C-2.69078116 9.54096742 -2.37751201 8.08279278 -2.0625 6.625 C-1.88847656 5.81289063 -1.71445313 5.00078125 -1.53515625 4.1640625 C-1 2 -1 2 0 0 Z " fill="#E1CCFD" transform="translate(231,332)"/>
<path d="M0 0 C1 3 1 3 0 6 C-0.99 6.495 -0.99 6.495 -2 7 C-3.13350534 9.01669827 -3.13350534 9.01669827 -4 11 C-5 8 -5 8 -3.6875 4.375 C-2 1 -2 1 0 0 Z " fill="#EDE2FD" transform="translate(304,315)"/>
<path d="M0 0 C-0.375 2.9375 -0.375 2.9375 -1 6 C-1.99 6.495 -1.99 6.495 -3 7 C-3 6.01 -3 5.02 -3 4 C-4.65 5.65 -6.3 7.3 -8 9 C-6.68994234 5.06982701 -4.75047804 0 0 0 Z " fill="#E3D4FD" transform="translate(246,310)"/>
<path d="M0 0 C5.75 1.875 5.75 1.875 8 3 C7.34 4.65 6.68 6.3 6 8 C3.69 6.02 1.38 4.04 -1 2 C-0.67 1.34 -0.34 0.68 0 0 Z " fill="#A589FD" transform="translate(372,121)"/>
<path d="M0 0 C0.99 0 1.98 0 3 0 C2.25 5.75 2.25 5.75 0 8 C-0.66 7.34 -1.32 6.68 -2 6 C-1.67 5.01 -1.34 4.02 -1 3 C-0.34 3.33 0.32 3.66 1 4 C0.67 2.68 0.34 1.36 0 0 Z " fill="#D8C3FD" transform="translate(318,329)"/>
<path d="M0 0 C1.65 0.33 3.3 0.66 5 1 C5 1.99 5 2.98 5 4 C2.36 3.67 -0.28 3.34 -3 3 C-2.01 2.67 -1.02 2.34 0 2 C0 1.34 0 0.68 0 0 Z " fill="#E9DAFE" transform="translate(206,312)"/>
<path d="M0 0 C0.66 0.33 1.32 0.66 2 1 C1.67 3.31 1.34 5.62 1 8 C0.34 7.67 -0.32 7.34 -1 7 C-1.75 4.5625 -1.75 4.5625 -2 2 C-1.34 1.34 -0.68 0.68 0 0 Z " fill="#E5CFFE" transform="translate(289,360)"/>
<path d="M0 0 C0.66 0.66 1.32 1.32 2 2 C1.625 4.625 1.625 4.625 1 7 C0.01 7 -0.98 7 -2 7 C-1.125 2.25 -1.125 2.25 0 0 Z " fill="#DFCCFE" transform="translate(304,319)"/>
<path d="M0 0 C0.99 0.33 1.98 0.66 3 1 C3 2.98 3 4.96 3 7 C2.01 7.33 1.02 7.66 0 8 C0 5.36 0 2.72 0 0 Z " fill="#EFE8FC" transform="translate(307,314)"/>
<path d="M0 0 C0.33 0 0.66 0 1 0 C1 2.64 1 5.28 1 8 C0.01 8.33 -0.98 8.66 -2 9 C-2.25 3.375 -2.25 3.375 0 0 Z " fill="#F5EBFD" transform="translate(172,368)"/>
</svg>
